<svg xmlns="http://www.w3.org/2000/svg" viewBox="0 0 168 168" aria-hidden="true" role="img">
  <circle cx="84" cy="84" r="84" fill="#1ED760"/>
  <path fill="#121212" d="M119.1 114.4c-1.5 2.4-4.6 3.1-7 1.6-19.2-11.7-43.3-14.4-71.5-7.9-2.8.6-5.6-1.1-6.2-3.9-.6-2.8 1.1-5.6 3.9-6.2 31-7.1 57.7-4 79.2 9.1 2.4 1.5 3.1 4.6 1.6 7zm10-22.2c-1.9 3.1-6 4.1-9.1 2.2-22-13.5-55.5-17.4-81.5-9.5-3.5 1.1-7.3-.9-8.4-4.4-1.1-3.5.9-7.3 4.4-8.4 29.7-9 66.5-4.7 92.5 11.2 3.2 1.9 4.2 6 2.1 8.9zm.9-23.1C104.4 53.9 61.5 52.5 37 59.9c-4.2 1.3-8.7-1.1-10-5.3-1.3-4.2 1.1-8.7 5.3-10 28.2-8.5 75.1-6.9 105.9 11.5 3.7 2.2 4.9 7.1 2.7 10.8-2.3 3.6-7.2 4.8-10.9 2.6z"/>
</svg>
